<svg version="1.1" id="Layer_1" xmlns="http://www.w3.org/2000/svg" xmlns:xlink="http://www.w3.org/1999/xlink" x="0px" y="0px"
	 width="100%" viewBox="0 0 290 290" enable-background="new 0 0 290 290" xml:space="preserve">
<path fill="#000000" opacity="1.000000" stroke="none" 
	d="
M135.000000,291.000000 
	C90.000000,291.000000 45.500000,291.000000 1.000000,291.000000 
	C1.000000,194.333328 1.000000,97.666664 1.000000,1.000000 
	C97.666664,1.000000 194.333328,1.000000 291.000000,1.000000 
	C291.000000,97.666664 291.000000,194.333328 291.000000,291.000000 
	C239.166672,291.000000 187.333328,291.000000 135.000000,291.000000 
M62.999817,138.798630 
	C62.988419,140.798309 63.064167,142.802948 62.950905,144.796844 
	C62.389000,154.688400 67.346222,161.093521 75.990509,164.855957 
	C82.119232,167.523514 88.428093,169.798782 94.730217,172.042175 
	C111.721619,178.090744 129.232193,183.286057 143.558548,194.715561 
	C154.936188,203.792587 165.376587,214.042831 176.262482,223.739227 
	C178.242523,225.502914 180.364044,227.107788 183.047302,229.297729 
	C183.047302,225.170929 182.452820,222.027237 183.150070,219.202347 
	C186.191818,206.878677 189.845932,194.705093 192.835281,182.369781 
	C197.561981,162.865387 206.463577,144.991653 214.090607,126.620560 
	C221.673386,108.356071 220.902054,90.897896 209.934143,74.099373 
	C205.996399,68.068298 200.704254,64.851395 193.617615,66.085976 
	C178.769180,68.672745 166.206329,76.042503 156.794846,87.531174 
	C150.926483,94.694733 147.069687,103.506149 142.310150,111.578056 
	C142.882675,110.895042 142.095184,109.492821 140.931931,108.558388 
	C136.851440,105.280556 132.693680,102.092621 128.470139,99.000473 
	C119.281235,92.273079 108.946556,91.142578 98.647247,94.955109 
	C78.724007,102.330147 67.091057,117.099586 62.999817,138.798630 
z"/>
<path fill="#FF5947" opacity="1.000000" stroke="none" 
	d="
M63.000656,138.339752 
	C67.091057,117.099586 78.724007,102.330147 98.647247,94.955109 
	C108.946556,91.142578 119.281235,92.273079 128.470139,99.000473 
	C132.693680,102.092621 136.851440,105.280556 140.931931,108.558388 
	C142.095184,109.492821 142.882675,110.895042 142.310150,111.578056 
	C147.069687,103.506149 150.926483,94.694733 156.794846,87.531174 
	C166.206329,76.042503 178.769180,68.672745 193.617615,66.085976 
	C200.704254,64.851395 205.996399,68.068298 209.934143,74.099373 
	C220.902054,90.897896 221.673386,108.356071 214.090607,126.620560 
	C206.463577,144.991653 197.561981,162.865387 192.835281,182.369781 
	C189.845932,194.705093 186.191818,206.878677 183.150070,219.202347 
	C182.452820,222.027237 183.047302,225.170929 183.047302,229.297729 
	C180.364044,227.107788 178.242523,225.502914 176.262482,223.739227 
	C165.376587,214.042831 154.936188,203.792587 143.558548,194.715561 
	C129.232193,183.286057 111.721619,178.090744 94.730217,172.042175 
	C88.428093,169.798782 82.119232,167.523514 75.990509,164.855957 
	C67.346222,161.093521 62.389000,154.688400 62.950905,144.796844 
	C63.064167,142.802948 62.988419,140.798309 63.000656,138.339752 
z"/>
</svg>